<svg width="24" height="25" viewBox="0 0 24 25" fill="none" xmlns="http://www.w3.org/2000/svg">
<path fill-rule="evenodd" clip-rule="evenodd" d="M12 2.5C6.5 2.5 2 7 2 12.5C2 18 6.5 22.5 12 22.5C14.5078 22.5 16.8008 21.5703 18.5625 20.0312C18.7656 19.9336 18.9336 19.7656 19.0312 19.5625C20.8516 17.75 22 15.2578 22 12.5C22 7 17.5 2.5 12 2.5ZM13.0312 4.5625C14.3008 4.73047 15.4883 5.21094 16.5 5.90625C15.2812 6.97656 13.3125 9.18359 13.0625 12.4688C12.7227 12.4844 12.3672 12.5 12 12.5C11.7448 12.5 11.4979 12.4895 11.258 12.4792C11.1711 12.4755 11.0851 12.4719 11 12.4688C11.0039 9.71875 11.5352 7.71875 12.0625 6.40625C12.5703 5.14453 12.9961 4.60547 13.0312 4.5625ZM10.2188 5.65625C10.375 5.27344 10.5352 4.92188 10.6875 4.625C9.27734 4.86328 7.96484 5.46875 6.90625 6.34375C7.10938 6.85156 7.8125 8.8125 7.96875 12.0938C8.28516 12.1602 8.64062 12.2305 9 12.2812C9.02734 9.36328 9.61328 7.15234 10.2188 5.65625ZM18 7.25C18.832 8.20312 19.4414 9.36328 19.75 10.625C19.5977 10.7578 19.2383 11.0352 18.2812 11.4375C17.5352 11.7539 16.4609 12.043 15.0938 12.25C15.4297 9.57031 17.1445 7.92969 18 7.25ZM5.9375 11.5C5.82031 9.91797 5.58594 8.82812 5.375 8.0625C4.85938 8.83203 4.47656 9.70312 4.25 10.625C4.40234 10.7578 4.76172 11.0352 5.71875 11.4375C5.75055 11.4514 5.78942 11.4603 5.82868 11.4692L5.82869 11.4692L5.82871 11.4692C5.86662 11.4779 5.90488 11.4866 5.9375 11.5ZM4 12.8438C4.27344 12.9961 4.57812 13.1289 4.9375 13.2812C5.23828 13.4062 5.60156 13.5391 5.96875 13.6562C5.92578 14.9922 5.66797 16.1641 5.40625 17C4.58984 15.8047 4.06641 14.3789 4 12.8438ZM17.875 17.9062C19.1133 16.5586 19.918 14.7852 20 12.8438C19.7266 12.9961 19.4219 13.1289 19.0625 13.2812C18.1094 13.6836 16.7812 14.0547 15.125 14.2812C15.4688 16.3477 17.0273 17.4531 17.875 17.9062ZM7.96875 14.1562C8.30859 14.2188 8.68359 14.2656 9.0625 14.3125C9.24219 16.4492 9.73047 18.1367 10.2188 19.3438C10.375 19.7266 10.5352 20.0781 10.6875 20.375C9.29297 20.1406 7.99219 19.5469 6.9375 18.6875C7.26953 17.8789 7.83594 16.2266 7.96875 14.1562ZM11.3333 14.4794C11.2528 14.4757 11.173 14.4719 11.0938 14.4688C11.2695 16.2461 11.668 17.6133 12.0625 18.5938C12.5703 19.8555 12.9961 20.3945 13.0312 20.4375C14.207 20.2812 15.3203 19.8633 16.2812 19.25C15.0664 18.4375 13.4844 16.9297 13.125 14.4688C12.7656 14.4844 12.3867 14.5 12 14.5C11.772 14.5 11.5503 14.4896 11.3333 14.4794Z" fill="#757575"/>
</svg>
