<svg width="24" height="25" viewBox="0 0 24 25" fill="none" xmlns="http://www.w3.org/2000/svg">
<path fill-rule="evenodd" clip-rule="evenodd" d="M5 3.5H19C20.105 3.5 21 4.395 21 5.5V19.5C21 20.605 20.105 21.5 19 21.5H5C3.895 21.5 3 20.605 3 19.5V5.5C3 4.395 3.895 3.5 5 3.5ZM6.477 17.5H9V10.5H6.477V17.5ZM7.694 9.217C6.923 9.217 6.408 8.703 6.408 8.017C6.408 7.331 6.922 6.817 7.779 6.817C8.55 6.817 9.065 7.331 9.065 8.017C9.065 8.703 8.551 9.217 7.694 9.217ZM15.558 17.5H18V13.674C18 11.477 17.023 10.5 15.802 10.5C14.581 10.5 13.93 10.907 13.605 11.477V10.5H11.082V17.5H13.605V13.674C13.605 12.535 14.419 12.372 14.663 12.372C14.907 12.372 15.558 12.616 15.558 13.674V17.5Z" fill="#757575"/>
</svg>
