<svg width="24" height="25" viewBox="0 0 24 25" fill="none" xmlns="http://www.w3.org/2000/svg">
<path fill-rule="evenodd" clip-rule="evenodd" d="M3 8.5C3 5.739 5.239 3.5 8 3.5H16C18.761 3.5 21 5.739 21 8.5V16.5C21 19.261 18.761 21.5 16 21.5H8C5.239 21.5 3 19.261 3 16.5V8.5ZM19 6.5C19 5.948 18.552 5.5 18 5.5C17.448 5.5 17 5.948 17 6.5C17 7.052 17.448 7.5 18 7.5C18.552 7.5 19 7.052 19 6.5ZM12 7.5C14.761 7.5 17 9.739 17 12.5C17 15.261 14.761 17.5 12 17.5C9.239 17.5 7 15.261 7 12.5C7 9.739 9.239 7.5 12 7.5ZM9 12.5C9 10.8431 10.3431 9.5 12 9.5C13.6569 9.5 15 10.8431 15 12.5C15 14.1569 13.6569 15.5 12 15.5C10.3431 15.5 9 14.1569 9 12.5Z" fill="#757575"/>
</svg>
