<svg width="24" height="25" viewBox="0 0 24 25" fill="none" xmlns="http://www.w3.org/2000/svg">
<path d="M21 5.5C20.298 5.9051 18.8895 6.45719 18.0615 6.61643C18.0372 6.62255 18.0174 6.63043 17.994 6.63655C17.2623 5.93485 16.2597 5.5 15.15 5.5C12.9135 5.5 11.1 7.26301 11.1 9.43725C11.1 9.55187 11.0901 9.76273 11.1 9.87473C8.0823 9.87473 5.7855 8.33832 4.1385 6.37495C3.9594 6.81242 3.8811 7.50362 3.8811 8.15283C3.8811 9.37863 4.8666 10.5826 6.4011 11.3289C6.1185 11.3998 5.8071 11.4505 5.4831 11.4505C4.9602 11.4505 4.4067 11.3166 3.9 10.9107C3.9 10.9255 3.9 10.9395 3.9 10.9553C3.9 12.6684 5.7702 13.8347 7.4334 14.1593C7.0959 14.3527 6.4155 14.3719 6.0834 14.3719C5.8494 14.3719 5.0214 14.2678 4.8 14.2276C5.2626 15.6319 6.9312 16.4211 8.5215 16.4491C7.2777 17.3975 6.4146 17.7492 3.8676 17.7492H3C4.6092 18.7519 6.6585 19.5 8.7123 19.5C15.3993 19.5 19.2 14.5452 19.2 9.87473C19.2 9.79948 19.1982 9.64199 19.1955 9.48363C19.1955 9.46788 19.2 9.453 19.2 9.43725C19.2 9.41363 19.1928 9.39088 19.1928 9.36726C19.1901 9.24827 19.1874 9.13715 19.1847 9.0794C19.8957 8.58068 20.5122 7.9586 21 7.24989C20.3475 7.53162 19.6473 7.72061 18.912 7.80636C19.6626 7.36888 20.7291 6.32595 21 5.5Z" fill="#757575"/>
</svg>
