<svg width="24" height="25" viewBox="0 0 24 25" fill="none" xmlns="http://www.w3.org/2000/svg">
<path d="M18.16 5.50998C14.0681 4.83001 9.89194 4.83001 5.8 5.50998C3.46 5.99998 2 7.50998 2 9.47998V16.48C2 18.48 3.46 19.97 5.84 20.48C7.87551 20.8227 9.93585 20.9966 12 21C14.0705 20.9995 16.1374 20.829 18.18 20.49C20.5 20.05 22 18.49 22 16.49V9.48999C22 7.49998 20.5 5.93998 18.16 5.50998ZM15.26 13.45L10.26 16.45C10.1818 16.4977 10.0916 16.5219 10 16.52C9.91318 16.5193 9.82768 16.4988 9.75 16.46C9.67137 16.4123 9.6068 16.3446 9.56289 16.2638C9.51897 16.1829 9.49727 16.0919 9.5 16V9.99999C9.50075 9.91143 9.52411 9.82452 9.56786 9.74752C9.61161 9.67052 9.67431 9.60597 9.75 9.55999C9.82843 9.51797 9.91603 9.49598 10.005 9.49598C10.094 9.49598 10.1816 9.51797 10.26 9.55999L15.26 12.56C15.3323 12.6061 15.3918 12.6696 15.433 12.7448C15.4742 12.8199 15.4958 12.9043 15.4958 12.99C15.4958 13.0757 15.4742 13.16 15.433 13.2352C15.3918 13.3103 15.3323 13.3739 15.26 13.42V13.45Z" fill="#757575"/>
</svg>
